<svg xmlns="http://www.w3.org/2000/svg" width="1120" height="610" viewBox="0 0 1120 610">
<rect width="1120" height="610" fill="#f8fafc"/>
<text x="48.0" y="43.0" font-family="system-ui, sans-serif" font-size="24" font-weight="700" fill="#102a43">Action ablation</text>
<text x="48.0" y="68.0" font-family="system-ui, sans-serif" font-size="14" fill="#486581">Effort scale changes authority; the learned policy can compensate in its action output.</text>
<line x1="80.0" y1="480.0" x2="520.0" y2="480.0" stroke="#d9e2ec" stroke-width="1"/>
<text x="70.0" y="484.0" text-anchor="end" font-size="11" fill="#627d98">0%</text>
<line x1="80.0" y1="393.8" x2="520.0" y2="393.8" stroke="#d9e2ec" stroke-width="1"/>
<text x="70.0" y="397.8" text-anchor="end" font-size="11" fill="#627d98">25%</text>
<line x1="80.0" y1="307.5" x2="520.0" y2="307.5" stroke="#d9e2ec" stroke-width="1"/>
<text x="70.0" y="311.5" text-anchor="end" font-size="11" fill="#627d98">50%</text>
<line x1="80.0" y1="221.2" x2="520.0" y2="221.2" stroke="#d9e2ec" stroke-width="1"/>
<text x="70.0" y="225.2" text-anchor="end" font-size="11" fill="#627d98">75%</text>
<line x1="80.0" y1="135.0" x2="520.0" y2="135.0" stroke="#d9e2ec" stroke-width="1"/>
<text x="70.0" y="139.0" text-anchor="end" font-size="11" fill="#627d98">100%</text>
<polyline points="80.0,144.2 226.7,135.0 520.0,135.0" fill="none" stroke="#db2777" stroke-width="2.8" stroke-linejoin="round" stroke-linecap="round"/>
<circle cx="72.0" cy="135.0" r="4" fill="#ffffff" stroke="#db2777" stroke-width="1.8"/>
<circle cx="80.0" cy="135.0" r="4" fill="#ffffff" stroke="#db2777" stroke-width="1.8"/>
<circle cx="88.0" cy="162.6" r="4" fill="#ffffff" stroke="#db2777" stroke-width="1.8"/>
<circle cx="218.7" cy="135.0" r="4" fill="#ffffff" stroke="#db2777" stroke-width="1.8"/>
<circle cx="226.7" cy="135.0" r="4" fill="#ffffff" stroke="#db2777" stroke-width="1.8"/>
<circle cx="234.7" cy="135.0" r="4" fill="#ffffff" stroke="#db2777" stroke-width="1.8"/>
<circle cx="512.0" cy="135.0" r="4" fill="#ffffff" stroke="#db2777" stroke-width="1.8"/>
<circle cx="520.0" cy="135.0" r="4" fill="#ffffff" stroke="#db2777" stroke-width="1.8"/>
<circle cx="528.0" cy="135.0" r="4" fill="#ffffff" stroke="#db2777" stroke-width="1.8"/>
<circle cx="80.0" cy="144.2" r="6" fill="#db2777" stroke="#ffffff" stroke-width="1.5"/>
<circle cx="226.7" cy="135.0" r="6" fill="#db2777" stroke="#ffffff" stroke-width="1.5"/>
<circle cx="520.0" cy="135.0" r="6" fill="#db2777" stroke="#ffffff" stroke-width="1.5"/>
<text x="80.0" y="149.0" text-anchor="middle" font-size="12" font-weight="700" fill="#db2777">97%</text>
<text x="226.7" y="149.0" text-anchor="middle" font-size="12" font-weight="700" fill="#db2777">100%</text>
<text x="520.0" y="149.0" text-anchor="middle" font-size="12" font-weight="700" fill="#db2777">100%</text>
<text x="80.0" y="503.0" text-anchor="middle" font-size="11" font-weight="600" fill="#334e68">50</text>
<text x="80.0" y="520.0" text-anchor="middle" font-size="10" fill="#829ab1">A_E50</text>
<text x="226.7" y="503.0" text-anchor="middle" font-size="11" font-weight="600" fill="#334e68">100</text>
<text x="226.7" y="520.0" text-anchor="middle" font-size="10" fill="#829ab1">B0</text>
<text x="520.0" y="503.0" text-anchor="middle" font-size="11" font-weight="600" fill="#334e68">200</text>
<text x="520.0" y="520.0" text-anchor="middle" font-size="10" fill="#829ab1">A_E200</text>
<text x="80.0" y="117.0" font-size="15" font-weight="700" fill="#243b53">30-second robust success</text>
<text x="300.0" y="546.0" text-anchor="middle" font-size="12" fill="#486581">Maximum requested effort scale</text>
<line x1="610.0" y1="480.0" x2="1050.0" y2="480.0" stroke="#d9e2ec" stroke-width="1"/>
<text x="600.0" y="484.0" text-anchor="end" font-size="11" fill="#627d98">0.00</text>
<line x1="610.0" y1="393.8" x2="1050.0" y2="393.8" stroke="#d9e2ec" stroke-width="1"/>
<text x="600.0" y="397.8" text-anchor="end" font-size="11" fill="#627d98">0.73</text>
<line x1="610.0" y1="307.5" x2="1050.0" y2="307.5" stroke="#d9e2ec" stroke-width="1"/>
<text x="600.0" y="311.5" text-anchor="end" font-size="11" fill="#627d98">1.45</text>
<line x1="610.0" y1="221.2" x2="1050.0" y2="221.2" stroke="#d9e2ec" stroke-width="1"/>
<text x="600.0" y="225.2" text-anchor="end" font-size="11" fill="#627d98">2.18</text>
<line x1="610.0" y1="135.0" x2="1050.0" y2="135.0" stroke="#d9e2ec" stroke-width="1"/>
<text x="600.0" y="139.0" text-anchor="end" font-size="11" fill="#627d98">2.90</text>
<polyline points="610.0,388.4 756.7,333.9 1050.0,417.0" fill="none" stroke="#db2777" stroke-width="2.8" stroke-linejoin="round" stroke-linecap="round"/>
<circle cx="602.0" cy="421.1" r="4" fill="#ffffff" stroke="#db2777" stroke-width="1.8"/>
<circle cx="610.0" cy="379.5" r="4" fill="#ffffff" stroke="#db2777" stroke-width="1.8"/>
<circle cx="618.0" cy="364.5" r="4" fill="#ffffff" stroke="#db2777" stroke-width="1.8"/>
<circle cx="748.7" cy="408.4" r="4" fill="#ffffff" stroke="#db2777" stroke-width="1.8"/>
<circle cx="756.7" cy="172.0" r="4" fill="#ffffff" stroke="#db2777" stroke-width="1.8"/>
<circle cx="764.7" cy="421.4" r="4" fill="#ffffff" stroke="#db2777" stroke-width="1.8"/>
<circle cx="1042.0" cy="412.7" r="4" fill="#ffffff" stroke="#db2777" stroke-width="1.8"/>
<circle cx="1050.0" cy="422.9" r="4" fill="#ffffff" stroke="#db2777" stroke-width="1.8"/>
<circle cx="1058.0" cy="415.4" r="4" fill="#ffffff" stroke="#db2777" stroke-width="1.8"/>
<circle cx="610.0" cy="388.4" r="6" fill="#db2777" stroke="#ffffff" stroke-width="1.5"/>
<circle cx="756.7" cy="333.9" r="6" fill="#db2777" stroke="#ffffff" stroke-width="1.5"/>
<circle cx="1050.0" cy="417.0" r="6" fill="#db2777" stroke="#ffffff" stroke-width="1.5"/>
<text x="610.0" y="375.4" text-anchor="middle" font-size="12" font-weight="700" fill="#db2777">0.77</text>
<text x="756.7" y="320.9" text-anchor="middle" font-size="12" font-weight="700" fill="#db2777">1.23</text>
<text x="1050.0" y="404.0" text-anchor="middle" font-size="12" font-weight="700" fill="#db2777">0.53</text>
<text x="610.0" y="503.0" text-anchor="middle" font-size="11" font-weight="600" fill="#334e68">50</text>
<text x="610.0" y="520.0" text-anchor="middle" font-size="10" fill="#829ab1">A_E50</text>
<text x="756.7" y="503.0" text-anchor="middle" font-size="11" font-weight="600" fill="#334e68">100</text>
<text x="756.7" y="520.0" text-anchor="middle" font-size="10" fill="#829ab1">B0</text>
<text x="1050.0" y="503.0" text-anchor="middle" font-size="11" font-weight="600" fill="#334e68">200</text>
<text x="1050.0" y="520.0" text-anchor="middle" font-size="10" fill="#829ab1">A_E200</text>
<text x="610.0" y="117.0" font-size="15" font-weight="700" fill="#243b53">Mean absolute requested effort</text>
<text x="830.0" y="546.0" text-anchor="middle" font-size="12" fill="#486581">Maximum requested effort scale</text>
<circle cx="80" cy="95" r="4" fill="#ffffff" stroke="#db2777" stroke-width="1.8"/>
<text x="92.0" y="99.0" font-size="11" fill="#486581">individual PPO seed</text>
<circle cx="235" cy="95" r="6" fill="#db2777" stroke="#ffffff" stroke-width="1.5"/>
<text x="248.0" y="99.0" font-size="11" fill="#486581">mean of 3 seeds</text>
</svg>
